<?xml version="1.0" standalone="no"?>
<!DOCTYPE svg PUBLIC "-//W3C//DTD SVG 20010904//EN"
 "http://www.w3.org/TR/2001/REC-SVG-20010904/DTD/svg10.dtd">
<svg version="1.0" xmlns="http://www.w3.org/2000/svg"
 width="517.000000pt" height="200.000000pt" viewBox="0 0 517.000000 200.000000"
 preserveAspectRatio="xMidYMid meet">

<g transform="translate(0.000000,200.000000) scale(0.100000,-0.100000)"
fill="#000000" stroke="none">
<path d="M702 1705 l-32 -26 -2 -174 -3 -173 -100 59 c-108 64 -138 70 -143
28 -3 -24 8 -33 123 -100 l127 -74 -3 -255 c-1 -140 -1 -333 0 -428 1 -169 2
-173 26 -197 46 -47 64 -40 420 166 182 105 340 200 353 212 33 30 30 86 -5
119 -16 14 -89 60 -163 103 -74 43 -193 112 -265 153 -71 42 -166 96 -210 122
l-80 46 -3 174 c-1 95 1 177 6 182 4 4 149 -73 321 -172 172 -99 315 -180 318
-180 3 0 -1 7 -8 16 -11 14 -10 19 9 34 12 10 19 21 15 23 -262 156 -621 359
-641 363 -21 4 -36 -1 -60 -21z m184 -587 c77 -45 186 -109 244 -143 299 -174
291 -169 278 -181 -22 -21 -653 -382 -660 -378 -7 4 -9 784 -3 784 2 0 65 -37
141 -82z"/>
<path d="M3717 1413 c-3 -5 -30 -154 -62 -332 -45 -256 -54 -325 -44 -331 7
-5 51 -14 98 -21 211 -30 307 38 346 245 36 191 -14 266 -179 266 -42 0 -76 2
-76 4 0 2 7 39 15 81 8 43 12 82 9 86 -6 11 -101 12 -107 2z m220 -289 c31
-40 -1 -225 -47 -274 -26 -27 -34 -30 -94 -30 -47 0 -66 4 -66 13 0 42 53 303
63 310 7 4 38 6 71 4 43 -3 62 -9 73 -23z"/>
<path d="M2143 1399 c-142 -28 -195 -105 -235 -347 -23 -137 -17 -205 24 -257
43 -55 128 -80 238 -69 83 8 99 17 107 67 l6 37 -107 0 c-100 0 -108 2 -131
25 -32 31 -33 97 -5 243 33 177 61 202 224 202 l104 0 7 41 c4 22 4 43 1 46
-18 19 -164 26 -233 12z"/>
<path d="M2530 1224 c-45 -19 -87 -59 -111 -105 -28 -55 -53 -198 -45 -254 16
-102 117 -161 234 -136 110 23 168 93 198 237 28 133 10 200 -66 252 -27 18
-46 22 -104 22 -41 -1 -86 -7 -106 -16z m149 -100 c22 -16 23 -21 18 -93 -11
-139 -40 -193 -112 -207 -29 -5 -43 -2 -63 14 -25 18 -27 24 -26 96 2 89 24
157 61 186 31 24 90 26 122 4z"/>
<path d="M2943 1228 c-6 -7 -27 -108 -47 -225 -20 -116 -39 -225 -42 -243 l-7
-31 59 3 59 3 16 90 c9 50 25 134 34 188 16 89 20 99 46 112 15 8 44 15 63 15
57 0 59 -15 26 -206 -17 -93 -30 -177 -30 -186 0 -15 9 -18 54 -18 63 0 52
-23 91 195 14 77 25 152 25 168 0 33 29 47 95 47 39 0 45 -3 51 -25 5 -21 -24
-217 -52 -357 -6 -28 -5 -28 50 -28 30 0 57 4 60 8 2 4 19 90 36 190 36 203
35 239 -10 284 -25 25 -36 28 -89 28 -35 0 -82 -8 -109 -18 -47 -18 -49 -18
-71 0 -29 23 -107 24 -158 3 -33 -14 -38 -14 -45 0 -11 19 -91 21 -105 3z"/>
<path d="M4280 1227 c-50 -16 -114 -85 -133 -143 -30 -89 -40 -184 -27 -233
25 -95 114 -143 224 -123 112 21 162 74 196 207 52 203 -4 307 -162 304 -35
-1 -79 -6 -98 -12z m142 -104 c8 -10 18 -29 21 -42 8 -31 -17 -160 -38 -201
-32 -62 -128 -76 -162 -24 -12 19 -14 38 -9 87 14 141 51 197 129 197 29 0 49
-6 59 -17z"/>
<path d="M3300 535 c-7 -9 -10 -18 -7 -21 3 -3 10 4 17 15 13 25 8 27 -10 6z"/>
<path d="M3445 510 c-8 -45 -8 -45 -35 -28 -27 17 -69 -6 -89 -47 -12 -25 -12
-32 0 -54 12 -22 23 -26 62 -27 26 -1 47 0 47 1 0 5 28 142 35 173 3 12 1 22
-4 22 -5 0 -12 -18 -16 -40z m-23 -65 c21 -47 -49 -110 -79 -69 -17 24 -16 45
3 72 21 30 61 29 76 -3z"/>
<path d="M3516 541 c-4 -7 -5 -15 -2 -18 9 -9 19 4 14 18 -4 11 -6 11 -12 0z"/>
<path d="M3796 541 c-4 -7 -5 -15 -2 -18 9 -9 19 4 14 18 -4 11 -6 11 -12 0z"/>
<path d="M4114 510 c-6 -39 -17 -50 -29 -30 -19 30 -89 -13 -101 -62 -8 -38
34 -82 68 -69 13 4 28 6 34 4 7 -2 19 35 31 97 11 55 16 100 12 100 -5 0 -12
-18 -15 -40z m-24 -59 c23 -44 -39 -111 -75 -81 -33 27 -4 100 40 100 14 0 29
-8 35 -19z"/>
<path d="M3037 480 c-5 -14 -27 -115 -27 -125 0 -3 4 -5 9 -5 5 0 11 19 15 41
9 59 23 81 49 77 20 -3 22 -8 20 -61 -1 -34 2 -55 8 -52 5 4 9 15 9 26 0 11 7
36 15 55 11 28 19 35 37 32 21 -3 23 -7 21 -63 -3 -68 11 -58 22 16 9 58 -10
79 -57 61 -23 -8 -35 -8 -49 1 -15 9 -23 9 -38 0 -15 -10 -21 -10 -24 0 -3 8
-6 7 -10 -3z"/>
<path d="M3276 479 c-5 -14 -26 -116 -26 -124 0 -3 4 -5 8 -5 10 0 36 130 28
138 -3 3 -8 -1 -10 -9z"/>
<path d="M3507 483 c-9 -15 -29 -125 -23 -130 7 -7 12 7 26 76 10 50 9 73 -3
54z"/>
<path d="M3576 468 c-39 -35 -43 -72 -12 -102 20 -21 30 -24 48 -17 13 4 28 6
34 4 10 -3 34 86 34 126 0 14 -2 14 -10 1 -7 -12 -12 -12 -22 -2 -18 18 -44
15 -72 -10z m74 -17 c23 -44 -39 -111 -75 -81 -33 27 -4 100 40 100 14 0 29
-8 35 -19z"/>
<path d="M3787 483 c-9 -15 -29 -125 -23 -130 7 -7 12 7 26 76 10 50 9 73 -3
54z"/>
<path d="M3847 475 c-3 -11 -8 -36 -12 -55 -4 -19 -9 -43 -11 -52 -3 -10 -1
-18 4 -18 5 0 13 17 17 38 9 53 32 84 58 80 20 -3 22 -8 20 -62 -3 -71 13 -64
23 11 6 49 5 53 -18 64 -19 8 -31 8 -46 0 -15 -8 -21 -8 -25 2 -2 7 -6 4 -10
-8z"/>
<path d="M4175 465 c-46 -45 -27 -115 30 -115 46 0 75 29 75 74 0 62 -61 86
-105 41z m87 -20 c10 -22 8 -30 -9 -53 -27 -36 -57 -40 -78 -8 -14 20 -14 29
-4 48 24 46 73 53 91 13z"/>
<path d="M4335 465 c-46 -45 -27 -115 30 -115 46 0 75 29 75 74 0 62 -61 86
-105 41z m87 -20 c10 -22 8 -30 -9 -53 -27 -36 -57 -40 -78 -8 -14 20 -14 29
-4 48 24 46 73 53 91 13z"/>
<path d="M4491 469 c-16 -45 -25 -123 -12 -115 6 4 11 18 11 31 0 38 21 75 47
81 13 4 23 10 23 15 0 13 -27 11 -36 -2 -4 -8 -9 -7 -15 2 -6 10 -10 7 -18
-12z"/>
</g>
</svg>
